Coordinates
version=1
nRows=7
nColumns=46
inDegrees=yes

Units are S.I. units (second, meters, Newtons, ...)
Angles are in degrees.

endheader
time	pelvis_tilt	pelvis_list	pelvis_rotation	pelvis_tx	pelvis_ty	pelvis_tz	bb_angle	bb_tx	bb_ty	bb_tz	hip_flexion_r	hip_adduction_r	hip_rotation_r	knee_angle_r	knee_angle_r_beta	ankle_angle_r	subtalar_angle_r	mtp_angle_r	crank_angle_r	hip_flexion_l	hip_adduction_l	hip_rotation_l	knee_angle_l	knee_angle_l_beta	ankle_angle_l	subtalar_angle_l	mtp_angle_l	crank_angle_l	lumbar_extension	lumbar_bending	lumbar_rotation	arm_flex_r	arm_add_r	arm_rot_r	elbow_flex_r	pro_sup_r	wrist_flex_r	wrist_dev_r	arm_flex_l	arm_add_l	arm_rot_l	elbow_flex_l	pro_sup_l	wrist_flex_l	wrist_dev_l
      5.00000000	     -9.06664447	     -2.57291143	     -2.26193270	      0.10287287	      1.16619926	     -0.25210322	      0.00000000	      0.50000000	      0.00000000	      0.25000000	     91.15833840	     -4.20569203	      2.72363499	    110.02968008	      1.92038019	      4.36796843	     -4.35307654	      0.00000000	      0.00000000	     41.60202508	    -14.60981992	    -15.37669717	     47.54321852	      0.82978570	    -14.39345364	      8.99424047	      0.00000000	      0.00000000	    -61.90866029	      5.53181882	      7.91088467	     89.75849215	    -19.61194900	     39.24838726	     54.18523873	     25.56824278	      0.00000000	      0.00000000	     89.58841145	    -12.18549951	     37.29619821	     36.95364735	     21.83166129	      0.00000000	      0.00000000
      5.00500000	     -9.33588448	     -2.57346287	     -2.51137109	      0.10242353	      1.16664661	     -0.25252320	      0.00000000	      0.50000000	      0.00000000	      0.25000000	     91.07293634	     -3.88343369	      2.67830378	    108.64888455	      1.89628076	      5.16284507	     -3.97951754	      0.00000000	      0.00000000	     42.60309135	    -14.87734272	    -14.92072157	     49.34453692	      0.86122464	    -15.56877174	      7.90896747	      0.00000000	      0.00000000	    -61.80224346	      5.64234473	      7.97420235	     89.75964232	    -19.20804989	     38.92829064	     54.20658605	     25.47339838	      0.00000000	      0.00000000	     89.59374958	    -12.54700370	     37.50157358	     37.02977819	     21.89174654	      0.00000000	      0.00000000
      5.01000000	     -9.64469346	     -2.54029226	     -2.77419567	      0.10192122	      1.16695895	     -0.25290407	      0.00000000	      0.50000000	      0.00000000	      0.25000000	     90.86314452	     -3.59834381	      2.64630537	    107.13473043	      1.86985379	      6.15763743	     -3.48572825	      0.00000000	      0.00000000	     43.71667416	    -15.07410740	    -14.36507519	     51.17062298	      0.89309585	    -16.90443350	      6.76792009	      0.00000000	      0.00000000	    -61.63295171	      5.73564613	      8.05056551	     89.76356065	    -18.78628751	     38.61017075	     54.25271681	     25.39150896	      0.00000000	      0.00000000	     89.59917077	    -12.90828761	     37.69582971	     37.09641153	     21.94385643	      0.00000000	      0.00000000
      5.01500000	     -9.98291717	     -2.50419339	     -3.03425487	      0.10147636	      1.16706571	     -0.25328999	      0.00000000	      0.50000000	      0.00000000	      0.25000000	     90.49084493	     -3.34130912	      2.60862530	    105.46010902	      1.84062613	      7.34888803	     -2.90892956	      0.00000000	      0.00000000	     44.95635340	    -15.28697131	    -13.83841012	     53.11563274	      0.92704268	    -18.21834312	      5.75702595	      0.00000000	      0.00000000	    -61.42581541	      5.84698013	      8.11328860	     89.76521344	    -18.33596644	     38.26437205	     54.28527982	     25.30575013	      0.00000000	      0.00000000	     89.59321837	    -13.27506077	     37.92819852	     37.16439739	     21.99792389	      0.00000000	      0.00000000
      5.02000000	    -10.29507785	     -2.49957368	     -3.25574998	      0.10095446	      1.16691076	     -0.25385234	      0.00000000	      0.50000000	      0.00000000	      0.25000000	     89.95283331	     -3.16288717	      2.53274132	    103.68145376	      1.80958274	      8.62028044	     -2.19622500	      0.00000000	      0.00000000	     46.25894370	    -15.44292159	    -13.23035170	     55.10234035	      0.96171726	    -19.92925736	      4.91918600	      0.00000000	      0.00000000	    -61.21217613	      5.98038731	      8.16070817	     89.76791642	    -17.82453038	     37.76701812	     54.22861206	     25.16475019	      0.00000000	      0.00000000	     89.59198448	    -13.68587688	     38.32625038	     37.29242324	     22.08520447	      0.00000000	      0.00000000
      5.02500000	    -10.49828463	     -2.42968828	     -3.46767083	      0.10052184	      1.16698581	     -0.25421688	      0.00000000	      0.50000000	      0.00000000	      0.25000000	     89.13799649	     -3.08755918	      2.48625433	    101.74101655	      1.77571572	     10.04869873	     -1.40055234	      0.00000000	      0.00000000	     47.42280163	    -15.54961294	    -12.68583272	     57.05907006	      0.99586864	    -21.19007901	      3.81376639	      0.00000000	      0.00000000	    -61.10400816	      5.99893840	      8.12048452	     89.77016600	    -17.38200648	     37.36798088	     54.22201756	     25.05383024	      0.00000000	      0.00000000	     89.59560168	    -14.06485609	     38.67623358	     37.39338593	     22.15849930	      0.00000000	      0.00000000
      5.03000000	    -10.68600987	     -2.31413155	     -3.69060708	      0.10005572	      1.16691815	     -0.25444964	      0.00000000	      0.50000000	      0.00000000	      0.25000000	     88.18562843	     -2.97328316	      2.48428402	     99.66452635	      1.73947413	     11.50483039	     -0.76954824	      0.00000000	      0.00000000	     48.58711271	    -15.63002642	    -12.20345495	     59.03118516	      1.03028854	    -22.40312374	      2.68319702	      0.00000000	      0.00000000	    -60.98967743	      5.95681784	      8.08447053	     89.77300200	    -16.98552050	     37.02928027	     54.19840647	     24.96128357	      0.00000000	      0.00000000	     89.59762141	    -14.38809860	     38.95702580	     37.50490163	     22.22180878	      0.00000000	      0.00000000
